<?xml version="1.0" standalone="no"?>
<!DOCTYPE svg PUBLIC "-//W3C//DTD SVG 20010904//EN"
 "http://www.w3.org/TR/2001/REC-SVG-20010904/DTD/svg10.dtd">
<svg version="1.0" xmlns="http://www.w3.org/2000/svg"
 width="379.000000pt" height="133.000000pt" viewBox="0 0 379.000000 133.000000"
 preserveAspectRatio="xMidYMid meet">

<g transform="translate(0.000000,133.000000) scale(0.100000,-0.100000)"
fill="#000000" stroke="none">
<path d="M0 665 l0 -665 1895 0 1895 0 0 665 0 665 -1895 0 -1895 0 0 -665z
m1752 218 l128 -77 0 -158 0 -157 -30 -16 -30 -16 0 149 0 149 -100 61 -101
62 -97 -59 -97 -59 -3 -151 -3 -150 -34 17 -35 17 2 154 3 154 125 78 c69 42
129 77 134 78 6 1 67 -34 138 -76z m530 17 c45 -13 95 -68 104 -114 9 -53 -25
-114 -93 -167 -31 -24 -70 -56 -87 -71 l-31 -27 108 -1 107 0 0 -55 0 -55
-204 0 -205 0 8 28 c21 71 77 141 166 207 86 65 110 100 94 142 -17 47 -102
38 -115 -12 -5 -20 -12 -25 -39 -25 -62 0 -95 11 -95 32 0 48 53 105 110 119
40 11 132 10 172 -1z m-680 -504 c13 -3 29 1 38 9 15 13 16 38 13 190 -2 96
-2 175 0 175 3 0 24 -11 47 -24 l41 -23 0 -147 c0 -80 -1 -151 -1 -156 0 -11
-103 -80 -120 -80 -5 0 -37 17 -70 37 l-60 38 0 152 0 152 43 25 42 26 3 -184
c2 -180 3 -184 24 -190z"/>
</g>
</svg>
